<?xml version="1.0" encoding="UTF-8" standalone="no"?>
<!-- Created with Inkscape (http://www.inkscape.org/) -->

<svg
   xmlns:dc="http://purl.org/dc/elements/1.1/"
   xmlns:cc="http://creativecommons.org/ns#"
   xmlns:rdf="http://www.w3.org/1999/02/22-rdf-syntax-ns#"
   xmlns:svg="http://www.w3.org/2000/svg"
   xmlns="http://www.w3.org/2000/svg"
   xmlns:sodipodi="http://sodipodi.sourceforge.net/DTD/sodipodi-0.dtd"
   xmlns:inkscape="http://www.inkscape.org/namespaces/inkscape"
   width="210mm"
   height="297mm"
   viewBox="0 0 744.09448819 1052.3622047"
   id="svg4945"
   version="1.1"
   inkscape:version="0.91 r13725"
   enable-background="new"
   sodipodi:docname="n.svg">
  <defs
     id="defs4947">
    <clipPath
       clipPathUnits="userSpaceOnUse"
       id="clipPath3414">
      <path
         d="m 676.683,543.629 59.476,0 0,-74.305 -59.476,0 0,74.305 z"
         id="path3416"
         inkscape:connector-curvature="0" />
    </clipPath>
    <clipPath
       clipPathUnits="userSpaceOnUse"
       id="clipPath3494">
      <path
         d="m 676.683,484.295 104.121,0 0,-74.305 -104.121,0 0,74.305 z"
         id="path3496"
         inkscape:connector-curvature="0" />
    </clipPath>
    <clipPath
       clipPathUnits="userSpaceOnUse"
       id="clipPath3574">
      <path
         d="m 661.997,425.145 59.476,0 0,-104.119 -59.476,0 0,104.119 z"
         id="path3576"
         inkscape:connector-curvature="0" />
    </clipPath>
    <filter
       inkscape:collect="always"
       style="color-interpolation-filters:sRGB"
       id="filter5070">
      <feBlend
         inkscape:collect="always"
         mode="multiply"
         in2="BackgroundImage"
         id="feBlend5072" />
    </filter>
    <filter
       inkscape:collect="always"
       style="color-interpolation-filters:sRGB"
       id="filter5074">
      <feBlend
         inkscape:collect="always"
         mode="multiply"
         in2="BackgroundImage"
         id="feBlend5076" />
    </filter>
    <clipPath
       clipPathUnits="userSpaceOnUse"
       id="clipPath3494-3">
      <path
         d="m 676.683,484.295 104.121,0 0,-74.305 -104.121,0 0,74.305 z"
         id="path3496-0"
         inkscape:connector-curvature="0" />
    </clipPath>
    <clipPath
       clipPathUnits="userSpaceOnUse"
       id="clipPath3494-0">
      <path
         d="m 676.683,484.295 104.121,0 0,-74.305 -104.121,0 0,74.305 z"
         id="path3496-02"
         inkscape:connector-curvature="0" />
    </clipPath>
  </defs>
  <sodipodi:namedview
     id="base"
     pagecolor="#ffffff"
     bordercolor="#666666"
     borderopacity="1.0"
     inkscape:pageopacity="0.0"
     inkscape:pageshadow="2"
     inkscape:zoom="4.37"
     inkscape:cx="67.050104"
     inkscape:cy="50.507643"
     inkscape:document-units="px"
     inkscape:current-layer="layer1"
     showgrid="true"
     inkscape:window-width="1013"
     inkscape:window-height="795"
     inkscape:window-x="480"
     inkscape:window-y="44"
     inkscape:window-maximized="0"
     showguides="false">
    <inkscape:grid
       type="xygrid"
       id="grid5838" />
  </sodipodi:namedview>
  <metadata
     id="metadata4950">
    <rdf:RDF>
      <cc:Work
         rdf:about="">
        <dc:format>image/svg+xml</dc:format>
        <dc:type
           rdf:resource="http://purl.org/dc/dcmitype/StillImage" />
        <dc:title />
      </cc:Work>
    </rdf:RDF>
  </metadata>
  <g
     inkscape:label="north-tech"
     inkscape:groupmode="layer"
     id="layer1"
     style="filter:url(#filter5070)">
    <g
       id="g5868"
       inkscape:export-xdpi="26.187166"
       inkscape:export-ydpi="26.187166">
      <rect
         y="940.85364"
         x="8.5854368"
         height="102.84137"
         width="102.83225"
         id="rect5836"
         style="fill:#2d4757;fill-opacity:1;stroke:#2d4757;stroke-width:7.13617373;stroke-linejoin:round;stroke-miterlimit:4;stroke-dasharray:none;stroke-opacity:1" />
      <g
         style="display:inline;opacity:1;filter:url(#filter4805)"
         id="g3410"
         transform="matrix(1.25,0,0,-1.25,-823.02469,1625.3699)">
        <g
           id="g3412" />
        <g
           id="g3418">
          <g
             clip-path="url(#clipPath3414)"
             id="g3420">
            <g
               transform="translate(676.683,471.9782)"
               id="g3422">
              <path
                 d="m 0,0 0,68.996 c 0,1.406 1.249,2.655 2.653,2.655 l 39.339,0 c 1.405,0 2.653,-1.249 2.653,-2.655 l 0,-9.521 c 0,-1.406 1.249,-2.655 2.655,-2.655 l 9.521,0 c 1.406,0 2.655,-1.248 2.655,-2.653 L 59.476,0 c 0,-1.404 -1.249,-2.655 -2.655,-2.655 l -9.521,0 c -1.406,0 -2.655,1.251 -2.655,2.655 l 0,54.167 c 0,1.405 -1.248,2.653 -2.653,2.653 l -24.508,0 c -1.405,0 -2.654,-1.248 -2.654,-2.653 L 14.83,0 c 0,-1.404 -1.248,-2.655 -2.654,-2.655 l -9.523,0 C 1.249,-2.655 0,-1.404 0,0"
                 style="fill:#f14624;fill-opacity:1;fill-rule:nonzero;stroke:none"
                 id="path3424"
                 inkscape:connector-curvature="0" />
            </g>
          </g>
        </g>
      </g>
    </g>
  </g>
  <g
     inkscape:groupmode="layer"
     id="layer3"
     inkscape:label="wales"
     style="filter:url(#filter5074)" />
</svg>
