<?xml version="1.0" encoding="UTF-8" standalone="no"?>
<!-- Created with Inkscape (http://www.inkscape.org/) -->

<svg
   xmlns:dc="http://purl.org/dc/elements/1.1/"
   xmlns:cc="http://creativecommons.org/ns#"
   xmlns:rdf="http://www.w3.org/1999/02/22-rdf-syntax-ns#"
   xmlns:svg="http://www.w3.org/2000/svg"
   xmlns="http://www.w3.org/2000/svg"
   xmlns:sodipodi="http://sodipodi.sourceforge.net/DTD/sodipodi-0.dtd"
   xmlns:inkscape="http://www.inkscape.org/namespaces/inkscape"
   id="svg3336"
   version="1.1"
   inkscape:version="0.91 r13725"
   xml:space="preserve"
   width="1488.1875"
   height="1052.3625"
   viewBox="0 0 1488.1875 1052.3625"
   sodipodi:docname="nwtech.svg"
   enable-background="new"><metadata
     id="metadata3342"><rdf:RDF><cc:Work
         rdf:about=""><dc:format>image/svg+xml</dc:format><dc:type
           rdf:resource="http://purl.org/dc/dcmitype/StillImage" /><dc:title></dc:title></cc:Work></rdf:RDF></metadata><defs
     id="defs3340"><clipPath
       clipPathUnits="userSpaceOnUse"
       id="clipPath3350"><path
         d="m 0,841.89 1190.55,0 L 1190.55,0 0,0 0,841.89 Z"
         id="path3352"
         inkscape:connector-curvature="0" /></clipPath><clipPath
       clipPathUnits="userSpaceOnUse"
       id="clipPath3414"><path
         d="m 676.683,543.629 59.476,0 0,-74.305 -59.476,0 0,74.305 z"
         id="path3416"
         inkscape:connector-curvature="0" /></clipPath><clipPath
       clipPathUnits="userSpaceOnUse"
       id="clipPath3430"><path
         d="m 739.912,543.629 59.476,0 0,-74.305 -59.476,0 0,74.305 z"
         id="path3432"
         inkscape:connector-curvature="0" /></clipPath><clipPath
       clipPathUnits="userSpaceOnUse"
       id="clipPath3446"><path
         d="m 803.139,543.629 44.645,0 0,-74.305 -44.645,0 0,74.305 z"
         id="path3448"
         inkscape:connector-curvature="0" /></clipPath><clipPath
       clipPathUnits="userSpaceOnUse"
       id="clipPath3462"><path
         d="m 851.535,573.445 59.476,0 0,-104.121 -59.476,0 0,104.121 z"
         id="path3464"
         inkscape:connector-curvature="0" /></clipPath><clipPath
       clipPathUnits="userSpaceOnUse"
       id="clipPath3478"><path
         d="m 910.98,573.445 59.476,0 0,-104.121 -59.476,0 0,104.121 z"
         id="path3480"
         inkscape:connector-curvature="0" /></clipPath><clipPath
       clipPathUnits="userSpaceOnUse"
       id="clipPath3494"><path
         d="m 676.683,484.295 104.121,0 0,-74.305 -104.121,0 0,74.305 z"
         id="path3496"
         inkscape:connector-curvature="0" /></clipPath><clipPath
       clipPathUnits="userSpaceOnUse"
       id="clipPath3510"><path
         d="m 784.56,484.295 59.476,0 0,-74.305 -59.476,0 0,74.305 z"
         id="path3512"
         inkscape:connector-curvature="0" /></clipPath><clipPath
       clipPathUnits="userSpaceOnUse"
       id="clipPath3526"><path
         d="m 847.788,514.111 14.829,0 0,-104.121 -14.829,0 0,104.121 z"
         id="path3528"
         inkscape:connector-curvature="0" /></clipPath><clipPath
       clipPathUnits="userSpaceOnUse"
       id="clipPath3542"><path
         d="m 866.365,484.295 59.476,0 0,-74.305 -59.476,0 0,74.305 z"
         id="path3544"
         inkscape:connector-curvature="0" /></clipPath><clipPath
       clipPathUnits="userSpaceOnUse"
       id="clipPath3558"><path
         d="m 929.592,484.295 59.476,0 0,-74.305 -59.476,0 0,74.305 z"
         id="path3560"
         inkscape:connector-curvature="0" /></clipPath><clipPath
       clipPathUnits="userSpaceOnUse"
       id="clipPath3574"><path
         d="m 661.997,425.145 59.476,0 0,-104.119 -59.476,0 0,104.119 z"
         id="path3576"
         inkscape:connector-curvature="0" /></clipPath><clipPath
       clipPathUnits="userSpaceOnUse"
       id="clipPath3590"><path
         d="m 721.284,424.594 59.476,0 0,-74.303 -59.476,0 0,74.303 z"
         id="path3592"
         inkscape:connector-curvature="0" /></clipPath><clipPath
       clipPathUnits="userSpaceOnUse"
       id="clipPath3606"><path
         d="m 784.511,424.594 59.476,0 0,-74.303 -59.476,0 0,74.303 z"
         id="path3608"
         inkscape:connector-curvature="0" /></clipPath><clipPath
       clipPathUnits="userSpaceOnUse"
       id="clipPath3622"><path
         d="m 847.74,424.093 59.475,0 0,-104.118 -59.475,0 0,104.118 z"
         id="path3624"
         inkscape:connector-curvature="0" /></clipPath><filter
       inkscape:collect="always"
       style="color-interpolation-filters:sRGB"
       id="filter4805"><feBlend
         inkscape:collect="always"
         mode="multiply"
         in2="BackgroundImage"
         id="feBlend4807" /></filter></defs><sodipodi:namedview
     pagecolor="#ffffff"
     bordercolor="#666666"
     borderopacity="1"
     objecttolerance="10"
     gridtolerance="10"
     guidetolerance="10"
     inkscape:pageopacity="0"
     inkscape:pageshadow="2"
     inkscape:window-width="1291"
     inkscape:window-height="995"
     id="namedview3338"
     showgrid="false"
     inkscape:zoom="0.80580595"
     inkscape:cx="561.0472"
     inkscape:cy="526.18127"
     inkscape:window-x="608"
     inkscape:window-y="4"
     inkscape:window-maximized="0"
     inkscape:current-layer="layer2" /><g
     inkscape:groupmode="layer"
     id="layer2"
     inkscape:label="wales"
     style="display:inline;opacity:1"><g
       transform="matrix(1.25,0,0,-1.25,0,1052.3625)"
       style="display:inline"
       id="g3726"><g
         id="g3490"
         transform="translate(-205.50854,-1.9855897)"
         style=""><g
           id="g3492"
           style="" /><g
           id="g3498"
           style=""><g
             clip-path="url(#clipPath3494)"
             id="g3500"
             style=""><g
               transform="translate(691.5126,412.6443)"
               id="g3502"
               style=""><path
                 d="m 0,0 0,9.522 c 0,1.404 -1.248,2.654 -2.653,2.654 l -9.523,0 c -1.404,0 -2.654,1.248 -2.654,2.652 l 0,54.168 c 0,1.407 1.25,2.655 2.654,2.655 l 9.523,0 C -1.248,71.651 0,70.403 0,68.996 L 0,14.828 c 0,-1.404 1.249,-2.652 2.655,-2.652 l 24.507,0 c 1.406,0 2.653,1.248 2.653,2.652 l 0,54.168 c 0,1.407 1.25,2.655 2.655,2.655 l 9.522,0 c 1.405,0 2.654,-1.248 2.654,-2.655 l 0,-54.168 c 0,-1.404 1.248,-2.652 2.654,-2.652 l 24.352,0 c 1.404,0 2.654,1.248 2.654,2.652 l 0,54.168 c 0,1.407 1.249,2.655 2.653,2.655 l 9.679,0 c 1.404,0 2.653,-1.248 2.653,-2.655 l 0,-54.168 c 0,-1.404 -1.249,-2.652 -2.653,-2.652 l -9.679,0 c -1.404,0 -2.653,-1.25 -2.653,-2.654 l 0,-9.522 c 0,-1.404 -1.25,-2.655 -2.654,-2.655 l -24.352,0 c -1.406,0 -2.654,1.251 -2.654,2.655 l 0,9.522 c 0,1.404 -1.249,2.654 -2.654,2.654 l -9.522,0 c -1.405,0 -2.655,-1.25 -2.655,-2.654 l 0,-9.522 c 0,-1.404 -1.247,-2.655 -2.653,-2.655 l -24.507,0 C 1.249,-2.655 0,-1.404 0,0"
                 style="fill:#2d4757;fill-opacity:1;fill-rule:nonzero;stroke:none"
                 id="path3504"
                 inkscape:connector-curvature="0" /></g></g></g></g><g
         id="g3506"
         transform="translate(-205.50854,-1.9855897)"
         style=""><g
           id="g3508"
           style="" /><g
           id="g3514"
           style=""><g
             clip-path="url(#clipPath3510)"
             id="g3516"
             style=""><g
               transform="translate(802.0446,424.8206)"
               id="g3518"
               style=""><path
                 d="m 0,0 24.508,0 c 1.405,0 2.653,1.248 2.653,2.652 l 0,9.524 c 0,1.404 -1.248,2.652 -2.653,2.652 L 0,14.828 c -1.405,0 -2.655,-1.248 -2.655,-2.652 l 0,-9.524 C -2.655,1.248 -1.405,0 0,0 m -17.484,2.652 0,24.509 c 0,1.404 1.249,2.654 2.653,2.654 l 39.339,0 c 1.405,0 2.653,1.248 2.653,2.655 l 0,9.522 c 0,1.404 -1.248,2.652 -2.653,2.652 l -39.339,0 c -1.404,0 -2.653,1.248 -2.653,2.654 l 0,9.522 c 0,1.407 1.249,2.655 2.653,2.655 l 39.339,0 c 1.405,0 2.653,-1.248 2.653,-2.655 l 0,-9.522 c 0,-1.406 1.249,-2.654 2.654,-2.654 l 9.522,0 c 1.406,0 2.655,-1.248 2.655,-2.652 l 0,-54.168 c 0,-1.404 -1.249,-2.655 -2.655,-2.655 l -39.337,0 c -1.405,0 -2.655,1.251 -2.655,2.655 l 0,9.521 C -2.655,-1.25 -3.902,0 -5.308,0 l -9.523,0 c -1.404,0 -2.653,1.248 -2.653,2.652"
                 style="fill:#2d4757;fill-opacity:1;fill-rule:nonzero;stroke:none"
                 id="path3520"
                 inkscape:connector-curvature="0" /></g></g></g></g><g
         id="g3522"
         transform="translate(-205.50854,-1.9855897)"
         style=""><g
           id="g3524"
           style="" /><g
           id="g3530"
           style=""><g
             clip-path="url(#clipPath3526)"
             id="g3532"
             style=""><g
               transform="translate(847.7877,412.6443)"
               id="g3534"
               style=""><path
                 d="m 0,0 0,98.812 c 0,1.407 1.249,2.654 2.653,2.654 l 9.523,0 c 1.406,0 2.654,-1.247 2.654,-2.654 L 14.83,0 c 0,-1.404 -1.248,-2.655 -2.654,-2.655 l -9.523,0 C 1.249,-2.655 0,-1.404 0,0"
                 style="fill:#2d4757;fill-opacity:1;fill-rule:nonzero;stroke:none"
                 id="path3536"
                 inkscape:connector-curvature="0" /></g></g></g></g><g
         id="g3538"
         transform="translate(-205.50854,-1.9855897)"
         style=""><g
           id="g3540"
           style="" /><g
           id="g3546"
           style=""><g
             clip-path="url(#clipPath3542)"
             id="g3548"
             style=""><g
               transform="translate(883.8489,454.6361)"
               id="g3550"
               style=""><path
                 d="m 0,0 24.508,0 c 1.405,0 2.653,1.248 2.653,2.655 l 0,9.521 c 0,1.404 -1.248,2.652 -2.653,2.652 L 0,14.828 c -1.405,0 -2.655,-1.248 -2.655,-2.652 l 0,-9.521 C -2.655,1.248 -1.405,0 0,0 m -2.655,-41.992 0,9.522 c 0,1.404 -1.247,2.655 -2.653,2.655 l -9.523,0 c -1.404,0 -2.653,1.247 -2.653,2.652 l 0,39.339 c 0,1.404 1.249,2.652 2.653,2.652 l 9.523,0 c 1.406,0 2.653,1.248 2.653,2.655 l 0,9.522 c 0,1.406 1.25,2.654 2.655,2.654 l 24.508,0 c 1.405,0 2.653,-1.248 2.653,-2.654 l 0,-9.522 c 0,-1.407 1.249,-2.655 2.654,-2.655 l 9.522,0 c 1.406,0 2.655,-1.248 2.655,-2.652 l 0,-24.509 c 0,-1.406 -1.249,-2.654 -2.655,-2.654 l -39.337,0 c -1.405,0 -2.655,-1.248 -2.655,-2.652 l 0,-9.524 c 0,-1.405 1.25,-2.652 2.655,-2.652 l 39.337,0 c 1.406,0 2.655,-1.251 2.655,-2.655 l 0,-9.522 c 0,-1.404 -1.249,-2.654 -2.655,-2.654 l -39.337,0 c -1.405,0 -2.655,1.25 -2.655,2.654"
                 style="fill:#2d4757;fill-opacity:1;fill-rule:nonzero;stroke:none"
                 id="path3552"
                 inkscape:connector-curvature="0" /></g></g></g></g><g
         id="g3554"
         transform="translate(-205.50854,-1.9855897)"
         style=""><g
           id="g3556"
           style="" /><g
           id="g3562"
           style=""><g
             clip-path="url(#clipPath3558)"
             id="g3564"
             style=""><g
               transform="translate(929.5919,412.6443)"
               id="g3566"
               style=""><path
                 d="m 0,0 0,9.522 c 0,1.404 1.249,2.654 2.653,2.654 l 39.339,0 c 1.405,0 2.653,1.248 2.653,2.652 l 0,9.525 c 0,1.404 -1.248,2.652 -2.653,2.652 l -39.339,0 C 1.249,27.005 0,28.252 0,29.659 l 0,24.509 c 0,1.404 1.249,2.652 2.653,2.652 l 9.523,0 c 1.406,0 2.654,1.248 2.654,2.655 l 0,9.521 c 0,1.407 1.249,2.655 2.654,2.655 l 39.337,0 c 1.406,0 2.655,-1.248 2.655,-2.655 l 0,-9.521 c 0,-1.407 -1.249,-2.655 -2.655,-2.655 l -39.337,0 c -1.405,0 -2.654,-1.248 -2.654,-2.652 l 0,-9.522 c 0,-1.406 1.249,-2.654 2.654,-2.654 l 39.337,0 c 1.406,0 2.655,-1.251 2.655,-2.655 l 0,-24.509 c 0,-1.404 -1.249,-2.652 -2.655,-2.652 l -9.521,0 c -1.406,0 -2.655,-1.25 -2.655,-2.654 l 0,-9.522 c 0,-1.404 -1.248,-2.655 -2.653,-2.655 l -39.339,0 C 1.249,-2.655 0,-1.404 0,0"
                 style="fill:#2d4757;fill-opacity:1;fill-rule:nonzero;stroke:none"
                 id="path3568"
                 inkscape:connector-curvature="0" /></g></g></g></g></g></g><g
     id="g3344"
     inkscape:groupmode="layer"
     inkscape:label="north-tech"
     transform="matrix(1.25,0,0,-1.25,0,1052.3625)"
     style="display:inline;opacity:1;filter:url(#filter4805)"><g
       id="g3346"
       style="display:inline"
       inkscape:label="g3346"><g
         id="g3348"
         clip-path="url(#clipPath3350)"
         style=""><g
           id="g3666"
           style=""><g
             transform="translate(-205.50854,-1.9855897)"
             id="g3410"
             style=""><g
               id="g3412"
               style="" /><g
               id="g3418"
               style=""><g
                 id="g3420"
                 clip-path="url(#clipPath3414)"
                 style=""><g
                   id="g3422"
                   transform="translate(676.683,471.9782)"
                   style=""><path
                     inkscape:connector-curvature="0"
                     id="path3424"
                     style="fill:#f14624;fill-opacity:1;fill-rule:nonzero;stroke:none"
                     d="m 0,0 0,68.996 c 0,1.406 1.249,2.655 2.653,2.655 l 39.339,0 c 1.405,0 2.653,-1.249 2.653,-2.655 l 0,-9.521 c 0,-1.406 1.249,-2.655 2.655,-2.655 l 9.521,0 c 1.406,0 2.655,-1.248 2.655,-2.653 L 59.476,0 c 0,-1.404 -1.249,-2.655 -2.655,-2.655 l -9.521,0 c -1.406,0 -2.655,1.251 -2.655,2.655 l 0,54.167 c 0,1.405 -1.248,2.653 -2.653,2.653 l -24.508,0 c -1.405,0 -2.654,-1.248 -2.654,-2.653 L 14.83,0 c 0,-1.404 -1.248,-2.655 -2.654,-2.655 l -9.523,0 C 1.249,-2.655 0,-1.404 0,0" /></g></g></g></g><g
             transform="translate(-205.50854,-1.9855897)"
             id="g3426"
             style=""><g
               id="g3428"
               style="" /><g
               id="g3434"
               style=""><g
                 id="g3436"
                 clip-path="url(#clipPath3430)"
                 style=""><g
                   id="g3438"
                   transform="translate(757.3957,484.1532)"
                   style=""><path
                     inkscape:connector-curvature="0"
                     id="path3440"
                     style="fill:#f14624;fill-opacity:1;fill-rule:nonzero;stroke:none"
                     d="m 0,0 24.508,0 c 1.405,0 2.653,1.249 2.653,2.653 l 0,39.339 c 0,1.405 -1.248,2.653 -2.653,2.653 L 0,44.645 c -1.405,0 -2.655,-1.248 -2.655,-2.653 l 0,-39.339 C -2.655,1.249 -1.405,0 0,0 m -17.484,2.653 0,39.339 c 0,1.405 1.249,2.653 2.653,2.653 l 9.523,0 c 1.406,0 2.653,1.249 2.653,2.655 l 0,9.521 c 0,1.406 1.25,2.655 2.655,2.655 l 24.508,0 c 1.405,0 2.653,-1.249 2.653,-2.655 l 0,-9.521 c 0,-1.406 1.249,-2.655 2.654,-2.655 l 9.522,0 c 1.406,0 2.655,-1.248 2.655,-2.653 l 0,-39.339 C 41.992,1.249 40.743,0 39.337,0 L 29.815,0 C 28.41,0 27.161,-1.249 27.161,-2.653 l 0,-9.522 c 0,-1.404 -1.248,-2.655 -2.653,-2.655 L 0,-14.83 c -1.405,0 -2.655,1.251 -2.655,2.655 l 0,9.522 C -2.655,-1.249 -3.902,0 -5.308,0 l -9.523,0 c -1.404,0 -2.653,1.249 -2.653,2.653" /></g></g></g></g><g
             transform="translate(-205.50854,-1.9855897)"
             id="g3442"
             style=""><g
               id="g3444"
               style="" /><g
               id="g3450"
               style=""><g
                 id="g3452"
                 clip-path="url(#clipPath3446)"
                 style=""><g
                   id="g3454"
                   transform="translate(803.1387,471.9782)"
                   style=""><path
                     inkscape:connector-curvature="0"
                     id="path3456"
                     style="fill:#f14624;fill-opacity:1;fill-rule:nonzero;stroke:none"
                     d="m 0,0 0,54.167 c 0,1.405 1.249,2.653 2.653,2.653 l 9.523,0 c 1.406,0 2.654,1.249 2.654,2.655 l 0,9.521 c 0,1.406 1.249,2.655 2.654,2.655 l 24.508,0 c 1.405,0 2.653,-1.249 2.653,-2.655 l 0,-9.521 c 0,-1.406 -1.248,-2.655 -2.653,-2.655 l -24.508,0 c -1.405,0 -2.654,-1.248 -2.654,-2.653 L 14.83,0 c 0,-1.404 -1.248,-2.655 -2.654,-2.655 l -9.523,0 C 1.249,-2.655 0,-1.404 0,0" /></g></g></g></g><g
             transform="translate(-205.50854,-1.9855897)"
             id="g3458"
             style=""><g
               id="g3460"
               style="" /><g
               id="g3466"
               style=""><g
                 id="g3468"
                 clip-path="url(#clipPath3462)"
                 style=""><g
                   id="g3470"
                   transform="translate(881.1943,471.9782)"
                   style=""><path
                     inkscape:connector-curvature="0"
                     id="path3472"
                     style="fill:#f14624;fill-opacity:1;fill-rule:nonzero;stroke:none"
                     d="m 0,0 0,9.522 c 0,1.404 -1.248,2.653 -2.653,2.653 l -9.522,0 c -1.405,0 -2.655,1.249 -2.655,2.653 l 0,39.339 c 0,1.405 -1.247,2.653 -2.653,2.653 l -9.523,0 c -1.404,0 -2.653,1.249 -2.653,2.655 l 0,9.521 c 0,1.406 1.249,2.655 2.653,2.655 l 9.523,0 c 1.406,0 2.653,1.248 2.653,2.653 l 0,24.508 c 0,1.405 1.25,2.654 2.655,2.654 l 9.522,0 C -1.248,101.466 0,100.217 0,98.812 L 0,74.304 c 0,-1.405 1.249,-2.653 2.655,-2.653 l 21.753,0 c 1.405,0 2.654,-1.249 2.654,-2.655 l 0,-9.521 c 0,-1.406 -1.249,-2.655 -2.654,-2.655 l -21.753,0 C 1.249,56.82 0,55.572 0,54.167 L 0,14.828 c 0,-1.404 1.249,-2.653 2.655,-2.653 l 24.507,0 c 1.406,0 2.655,-1.249 2.655,-2.653 l 0,-9.522 c 0,-1.404 -1.249,-2.655 -2.655,-2.655 l -24.507,0 C 1.249,-2.655 0,-1.404 0,0" /></g></g></g></g><g
             transform="translate(-205.50854,-1.9855897)"
             id="g3474"
             style=""><g
               id="g3476"
               style="" /><g
               id="g3482"
               style=""><g
                 id="g3484"
                 clip-path="url(#clipPath3478)"
                 style=""><g
                   id="g3486"
                   transform="translate(910.9796,471.9782)"
                   style=""><path
                     inkscape:connector-curvature="0"
                     id="path3488"
                     style="fill:#f14624;fill-opacity:1;fill-rule:nonzero;stroke:none"
                     d="m 0,0 0,98.812 c 0,1.405 1.249,2.654 2.653,2.654 l 9.523,0 c 1.406,0 2.654,-1.249 2.654,-2.654 l 0,-24.508 c 0,-1.405 1.249,-2.653 2.654,-2.653 l 24.508,0 c 1.405,0 2.653,-1.249 2.653,-2.655 l 0,-9.521 c 0,-1.406 1.249,-2.655 2.655,-2.655 l 9.521,0 c 1.406,0 2.655,-1.248 2.655,-2.653 L 59.476,0 c 0,-1.404 -1.249,-2.655 -2.655,-2.655 l -9.521,0 c -1.406,0 -2.655,1.251 -2.655,2.655 l 0,54.167 c 0,1.405 -1.248,2.653 -2.653,2.653 l -24.508,0 c -1.405,0 -2.654,-1.248 -2.654,-2.653 L 14.83,0 c 0,-1.404 -1.248,-2.655 -2.654,-2.655 l -9.523,0 C 1.249,-2.655 0,-1.404 0,0" /></g></g></g></g></g><g
           id="g3634"
           style="" /><g
           id="g3698"
           style=""><g
             transform="translate(-205.50854,-1.9855897)"
             id="g3570"
             style=""><g
               id="g3572"
               style="" /><g
               id="g3578"
               style=""><g
                 id="g3580"
                 clip-path="url(#clipPath3574)"
                 style=""><g
                   id="g3582"
                   transform="translate(691.6566,323.6781)"
                   style=""><path
                     inkscape:connector-curvature="0"
                     id="path3584"
                     style="fill:#f14624;fill-opacity:1;fill-rule:nonzero;stroke:none"
                     d="m 0,0 0,9.524 c 0,1.404 -1.248,2.652 -2.653,2.652 l -9.522,0 c -1.405,0 -2.655,1.248 -2.655,2.655 l 0,39.337 c 0,1.407 -1.247,2.652 -2.653,2.652 l -9.523,0 c -1.404,0 -2.653,1.25 -2.653,2.655 l 0,9.521 c 0,1.407 1.249,2.655 2.653,2.655 l 9.523,0 c 1.406,0 2.653,1.25 2.653,2.655 l 0,24.506 c 0,1.407 1.25,2.654 2.655,2.654 l 9.522,0 C -1.248,101.466 0,100.219 0,98.812 L 0,74.306 c 0,-1.405 1.249,-2.655 2.655,-2.655 l 20.802,0 c 1.406,0 2.655,-1.248 2.655,-2.655 l 0,-9.521 c 0,-1.405 -1.249,-2.655 -2.655,-2.655 l -20.802,0 C 1.249,56.82 0,55.575 0,54.168 L 0,14.831 c 0,-1.407 1.249,-2.655 2.655,-2.655 l 24.507,0 c 1.406,0 2.655,-1.248 2.655,-2.652 l 0,-9.524 c 0,-1.404 -1.249,-2.652 -2.655,-2.652 l -24.507,0 C 1.249,-2.652 0,-1.404 0,0" /></g></g></g></g><g
             transform="translate(-205.50854,-1.9855897)"
             id="g3586"
             style=""><g
               id="g3588"
               style="" /><g
               id="g3594"
               style=""><g
                 id="g3596"
                 clip-path="url(#clipPath3590)"
                 style=""><g
                   id="g3598"
                   transform="translate(738.7679,394.9343)"
                   style=""><path
                     inkscape:connector-curvature="0"
                     id="path3600"
                     style="fill:#f14624;fill-opacity:1;fill-rule:nonzero;stroke:none"
                     d="m 0,0 24.508,0 c 1.405,0 2.653,1.248 2.653,2.655 l 0,9.521 c 0,1.407 -1.248,2.652 -2.653,2.652 L 0,14.828 c -1.405,0 -2.655,-1.245 -2.655,-2.652 l 0,-9.521 C -2.655,1.248 -1.405,0 0,0 m -2.655,-41.992 0,9.525 c 0,1.404 -1.247,2.652 -2.653,2.652 l -9.523,0 c -1.404,0 -2.653,1.247 -2.653,2.654 l 0,39.337 c 0,1.407 1.249,2.652 2.653,2.652 l 9.523,0 c 1.406,0 2.653,1.251 2.653,2.655 l 0,9.522 c 0,1.406 1.25,2.654 2.655,2.654 l 24.508,0 c 1.405,0 2.653,-1.248 2.653,-2.654 l 0,-9.522 c 0,-1.404 1.249,-2.655 2.654,-2.655 l 9.522,0 c 1.406,0 2.655,-1.245 2.655,-2.652 l 0,-24.509 c 0,-1.404 -1.249,-2.654 -2.655,-2.654 l -39.337,0 c -1.405,0 -2.655,-1.245 -2.655,-2.652 l 0,-9.522 c 0,-1.407 1.25,-2.654 2.655,-2.654 l 39.337,0 c 1.406,0 2.655,-1.248 2.655,-2.652 l 0,-9.525 c 0,-1.404 -1.249,-2.652 -2.655,-2.652 l -39.337,0 c -1.405,0 -2.655,1.248 -2.655,2.652" /></g></g></g></g><g
             transform="translate(-205.50854,-1.9855897)"
             id="g3602"
             style=""><g
               id="g3604"
               style="" /><g
               id="g3610"
               style=""><g
                 id="g3612"
                 clip-path="url(#clipPath3606)"
                 style=""><g
                   id="g3614"
                   transform="translate(799.3406,352.9426)"
                   style=""><path
                     inkscape:connector-curvature="0"
                     id="path3616"
                     style="fill:#f14624;fill-opacity:1;fill-rule:nonzero;stroke:none"
                     d="m 0,0 0,9.524 c 0,1.404 -1.248,2.652 -2.653,2.652 l -9.523,0 c -1.404,0 -2.654,1.248 -2.654,2.655 l 0,39.337 c 0,1.407 1.25,2.652 2.654,2.652 l 9.523,0 C -1.248,56.82 0,58.07 0,59.475 l 0,9.521 c 0,1.407 1.249,2.655 2.655,2.655 l 39.337,0 c 1.405,0 2.654,-1.248 2.654,-2.655 l 0,-9.521 c 0,-1.405 -1.249,-2.655 -2.654,-2.655 l -39.337,0 C 1.249,56.82 0,55.575 0,54.168 L 0,14.831 c 0,-1.407 1.249,-2.655 2.655,-2.655 l 39.337,0 c 1.405,0 2.654,-1.248 2.654,-2.652 l 0,-9.524 c 0,-1.404 -1.249,-2.652 -2.654,-2.652 l -39.337,0 C 1.249,-2.652 0,-1.404 0,0" /></g></g></g></g><g
             transform="translate(-205.50854,-1.9855897)"
             id="g3618"
             style=""><g
               id="g3620"
               style="" /><g
               id="g3626"
               style=""><g
                 id="g3628"
                 clip-path="url(#clipPath3622)"
                 style=""><g
                   id="g3630"
                   transform="translate(847.7395,322.6268)"
                   style=""><path
                     inkscape:connector-curvature="0"
                     id="path3632"
                     style="fill:#f14624;fill-opacity:1;fill-rule:nonzero;stroke:none"
                     d="m 0,0 0,98.812 c 0,1.407 1.249,2.654 2.653,2.654 l 9.523,0 c 1.406,0 2.654,-1.247 2.654,-2.654 l 0,-24.506 c 0,-1.405 1.249,-2.655 2.654,-2.655 l 24.508,0 c 1.405,0 2.653,-1.248 2.653,-2.655 l 0,-9.521 c 0,-1.405 1.249,-2.655 2.655,-2.655 l 9.521,0 c 1.406,0 2.655,-1.245 2.655,-2.652 L 59.476,0 c 0,-1.404 -1.249,-2.652 -2.655,-2.652 l -9.521,0 c -1.406,0 -2.655,1.248 -2.655,2.652 l 0,54.168 c 0,1.407 -1.248,2.652 -2.653,2.652 l -24.508,0 c -1.405,0 -2.654,-1.245 -2.654,-2.652 L 14.83,0 c 0,-1.404 -1.248,-2.652 -2.654,-2.652 l -9.523,0 C 1.249,-2.652 0,-1.404 0,0" /></g></g></g></g></g></g></g></g></svg>